<svg width="82" height="79" viewBox="0 0 82 79" fill="none" xmlns="http://www.w3.org/2000/svg">
<path d="M0.904907 26.4676C0.904907 12.059 12.5854 0.378418 26.9941 0.378418H81.6572V51.3145C81.6572 66.4093 69.4204 78.646 54.3256 78.646H0.904907V26.4676Z" fill="#4C4F56" fill-opacity="0.5"/>
<path d="M19.9181 22.7042L26.2421 20.4702H30.3664V44.5288H25.6234V25.4881L21.0867 26.7598L19.9181 22.7042ZM39.9802 29.2344H42.4548C44.7919 29.2344 46.7395 29.9333 48.2976 31.3309C49.8786 32.7057 50.6691 34.6304 50.6691 37.105C50.6691 39.5796 49.8328 41.5158 48.1601 42.9134C46.5333 44.3111 44.5055 45.01 42.0767 45.01C40.1062 45.01 38.3763 44.5746 36.8869 43.7039C35.4205 42.8103 34.3551 41.5272 33.6906 39.8546L37.7462 37.4831C38.319 39.4078 39.7625 40.3701 42.0767 40.3701C43.2911 40.3701 44.2305 40.0837 44.895 39.5109C45.5824 38.9151 45.9261 38.1132 45.9261 37.105C45.9261 36.1198 45.5939 35.3293 44.9294 34.7335C44.2649 34.1378 43.3599 33.8399 42.2142 33.8399H34.9279L35.8902 20.4702H49.5349V24.9039H40.2895L39.9802 29.2344Z" fill="white"/>
<path d="M58.9174 37.7539C58.4683 38.1847 57.9184 38.4001 57.2677 38.4001C56.6078 38.4001 56.0533 38.1801 55.6042 37.7402C55.1643 37.3002 54.9443 36.7641 54.9443 36.1317C54.9443 35.4993 55.1643 34.9631 55.6042 34.5232C56.0625 34.0832 56.617 33.8633 57.2677 33.8633C57.9276 33.8633 58.4775 34.0832 58.9174 34.5232C59.3574 34.9448 59.5773 35.4809 59.5773 36.1317C59.5773 36.7732 59.3574 37.314 58.9174 37.7539ZM56.7453 42.7031L55.9204 42.2219L62.1894 35.2518L63.028 35.7192L56.7453 42.7031ZM56.6353 36.7641C56.8003 36.929 57.0065 37.0115 57.254 37.0115C57.5014 37.0115 57.7076 36.929 57.8726 36.7641C58.0376 36.5899 58.1201 36.3791 58.1201 36.1317C58.1201 35.8842 58.0376 35.678 57.8726 35.513C57.7076 35.348 57.5014 35.2656 57.254 35.2656C57.0065 35.2656 56.8003 35.348 56.6353 35.513C56.4795 35.678 56.4016 35.8842 56.4016 36.1317C56.4016 36.3791 56.4795 36.5899 56.6353 36.7641ZM64.2241 41.5758C64.2241 42.2082 64.0041 42.7444 63.5642 43.1843C63.1243 43.6242 62.5744 43.8442 61.9145 43.8442C61.2546 43.8442 60.7047 43.6242 60.2647 43.1843C59.8248 42.7444 59.6048 42.2082 59.6048 41.5758C59.6048 40.9434 59.8248 40.4072 60.2647 39.9673C60.7047 39.5274 61.2546 39.3074 61.9145 39.3074C62.5744 39.3074 63.1243 39.5274 63.5642 39.9673C64.0041 40.4072 64.2241 40.9434 64.2241 41.5758ZM62.5194 42.2082C62.6843 42.034 62.7668 41.8232 62.7668 41.5758C62.7668 41.3283 62.6843 41.1221 62.5194 40.9571C62.3636 40.783 62.1619 40.6959 61.9145 40.6959C61.667 40.6959 61.4608 40.783 61.2958 40.9571C61.14 41.1221 61.0621 41.3283 61.0621 41.5758C61.0621 41.8232 61.14 42.034 61.2958 42.2082C61.4608 42.3732 61.667 42.4556 61.9145 42.4556C62.1619 42.4556 62.3636 42.3732 62.5194 42.2082Z" fill="white"/>
<path d="M24.8517 55.7074C23.7852 55.7074 22.9087 55.3574 22.2221 54.6576C21.5289 53.951 21.1823 53.0945 21.1823 52.088C21.1823 51.0815 21.5289 50.2249 22.2221 49.5184C22.9087 48.8185 23.7852 48.4686 24.8517 48.4686C25.4916 48.4686 26.0815 48.6252 26.6214 48.9385C27.1613 49.2451 27.5812 49.6617 27.8812 50.1883L27.2613 50.5482C27.0413 50.1216 26.7147 49.7817 26.2815 49.5284C25.8482 49.2751 25.3716 49.1484 24.8517 49.1484C23.9718 49.1484 23.2586 49.4317 22.712 49.9983C22.1588 50.5715 21.8822 51.2681 21.8822 52.088C21.8822 52.9078 22.1588 53.6044 22.712 54.1776C23.2586 54.7442 23.9718 55.0275 24.8517 55.0275C25.3716 55.0275 25.8482 54.9008 26.2815 54.6476C26.7147 54.3943 27.0413 54.0543 27.2613 53.6277L27.8812 53.9777C27.5946 54.5042 27.178 54.9242 26.6314 55.2375C26.0848 55.5507 25.4916 55.7074 24.8517 55.7074ZM30.472 51.988L33.9314 55.5874H33.0115L29.7321 52.198V55.5874H29.0322V48.5885H29.7321V51.788L32.9116 48.5885H33.8314L30.472 51.988ZM40.0312 55.5874H39.3313V49.8883L35.4319 55.5874H34.832V48.5885H35.5319V54.2876L39.4313 48.5885H40.0312V55.5874ZM46.627 48.5885V54.9275H47.3769V56.9272H46.677V55.5874H41.6778V56.9272H40.9779V54.9275H41.5478C42.0077 54.3876 42.2377 53.5544 42.2377 52.4279V48.5885H46.627ZM42.3777 54.9275H45.9271V49.2484H42.9376V52.4479C42.9376 53.5477 42.751 54.3743 42.3777 54.9275ZM49.9708 51.988L53.4302 55.5874H52.5103L49.2309 52.198V55.5874H48.531V48.5885H49.2309V51.788L52.4104 48.5885H53.3302L49.9708 51.988ZM59.8276 55.5874H59.0877L58.4378 53.8677H55.1184L54.4685 55.5874H53.7286L56.4182 48.5885H57.138L59.8276 55.5874ZM56.7781 49.4584L55.3683 53.2078H58.1879L56.7781 49.4584Z" fill="white"/>
</svg>
