<svg width="38" height="45" viewBox="0 0 38 45" fill="none" xmlns="http://www.w3.org/2000/svg">
<path d="M25.1638 9.15845C24.1486 9.15845 23.3052 8.82257 22.6334 8.15079C21.9616 7.47902 21.6258 6.65796 21.6258 5.68762C21.6258 4.73221 21.9616 3.91862 22.6334 3.24684C23.3201 2.56014 24.1636 2.21679 25.1638 2.21679C26.1789 2.21679 27.0223 2.55268 27.6941 3.22445C28.3659 3.89622 28.7018 4.71728 28.7018 5.68762C28.7018 6.65796 28.3659 7.47902 27.6941 8.15079C27.0373 8.82257 26.1938 9.15845 25.1638 9.15845ZM23.3724 5.68762C23.3724 6.21011 23.5366 6.6505 23.865 7.00878C24.2083 7.35213 24.6413 7.5238 25.1638 7.5238C25.6863 7.5238 26.1117 7.34466 26.4401 6.98638C26.7835 6.6281 26.9552 6.19518 26.9552 5.68762C26.9552 5.18006 26.7835 4.7546 26.4401 4.41125C26.1117 4.05297 25.6863 3.87383 25.1638 3.87383C24.6413 3.87383 24.2083 4.05297 23.865 4.41125C23.5366 4.7546 23.3724 5.18006 23.3724 5.68762ZM23.753 16.5928L22.6782 15.9658L33.0907 4.32168L34.1879 4.92628L23.753 16.5928ZM35.4643 14.9805C35.4643 15.9508 35.1284 16.7719 34.4566 17.4437C33.7849 18.1154 32.9414 18.4513 31.9263 18.4513C30.9112 18.4513 30.0677 18.1154 29.3959 17.4437C28.7242 16.7719 28.3883 15.9508 28.3883 14.9805C28.3883 14.0102 28.7242 13.1891 29.3959 12.5173C30.0677 11.8455 30.9112 11.5097 31.9263 11.5097C32.9414 11.5097 33.7849 11.8455 34.4566 12.5173C35.1284 13.1891 35.4643 14.0102 35.4643 14.9805ZM30.6275 16.2793C30.9709 16.6226 31.4038 16.7943 31.9263 16.7943C32.4338 16.7943 32.8593 16.6226 33.2027 16.2793C33.546 15.921 33.7177 15.4881 33.7177 14.9805C33.7177 14.4729 33.546 14.0475 33.2027 13.7041C32.8742 13.3458 32.4488 13.1667 31.9263 13.1667C31.4038 13.1667 30.9709 13.3458 30.6275 13.7041C30.2991 14.0475 30.1349 14.4729 30.1349 14.9805C30.1349 15.4881 30.2991 15.921 30.6275 16.2793Z" fill="#F5BA41"/>
<path d="M0.480756 7.11405L8.03448 4.44562H12.9608V33.1826H7.29553V10.4393L1.87655 11.9583L0.480756 7.11405Z" fill="#F5BA41"/>
</svg>
